<?xml version="1.0" encoding="UTF-8"?>
<svg xmlns="http://www.w3.org/2000/svg" xmlns:xlink="http://www.w3.org/1999/xlink" width="512px" height="512px" viewBox="0 0 512 512" version="1.1">
<g id="surface1">
<path style=" stroke:none;fill-rule:nonzero;fill:rgb(12.54902%,28.627451%,61.960784%);fill-opacity:1;" d="M 245.011719 0.105469 C 243.898438 0.1875 240.0625 0.433594 236.558594 0.683594 C 186.101562 4.226562 136.34375 23.851562 96.191406 56.085938 C 85.472656 64.664062 71.992188 77.566406 63.378906 87.460938 C 27.304688 128.972656 5.664062 179.59375 0.964844 233.597656 C -4.023438 291.191406 10.445312 348.410156 42.1875 396.476562 C 52.121094 411.523438 61.605469 423.066406 74.753906 436.257812 C 85.515625 447.058594 92.070312 452.746094 103.199219 461.160156 L 107.734375 464.535156 L 107.859375 411.9375 L 107.941406 359.292969 L 104.929688 354.675781 C 98.664062 345.109375 92.109375 332.578125 88.03125 322.230469 C 72.488281 282.863281 71.292969 239.328125 84.648438 199.175781 C 93.511719 172.503906 107.320312 149.914062 127.070312 129.753906 C 157.078125 99.207031 194.386719 81.109375 237.46875 76.246094 C 245.175781 75.378906 265.625 75.257812 272.835938 76.039062 C 279.308594 76.742188 287.472656 77.976562 292.417969 79.007812 C 296.914062 79.914062 306.601562 82.390625 308.414062 83.089844 L 309.527344 83.542969 L 309.527344 248.273438 L 311.917969 248.769531 C 316.164062 249.59375 344.734375 255.449219 345.804688 255.695312 C 346.503906 255.859375 340.527344 257.261719 328.285156 259.777344 L 309.734375 263.527344 L 309.609375 329.777344 C 309.570312 366.21875 309.691406 396.019531 309.855469 396.019531 C 310.640625 396.019531 324.121094 389.015625 328.777344 386.171875 C 349.101562 373.804688 367.078125 355.910156 379.484375 335.753906 C 381.09375 333.113281 382.988281 329.859375 383.691406 328.457031 L 384.96875 325.984375 L 384.96875 34.941406 L 382.410156 33.414062 C 380.96875 32.589844 377.050781 30.445312 373.632812 28.671875 C 343.992188 13.253906 311.917969 3.898438 278.195312 0.886719 C 271.4375 0.269531 249.585938 -0.226562 245.011719 0.105469 Z M 245.011719 0.105469 "/>
<path style=" stroke:none;fill-rule:nonzero;fill:rgb(86.666667%,17.647059%,14.901961%);fill-opacity:1;" d="M 404.339844 100.320312 L 404.339844 153.046875 L 407.847656 158.367188 C 411.105469 163.394531 416.171875 172.132812 416.050781 172.589844 C 416.007812 172.710938 416.296875 173.246094 416.710938 173.824219 C 417.078125 174.402344 418.195312 176.503906 419.183594 178.566406 C 427.964844 197.28125 433.40625 216.738281 435.753906 237.515625 C 436.582031 245.183594 436.457031 268.886719 435.550781 276.472656 C 430.851562 314.191406 415.804688 347.792969 391.109375 375.617188 C 364.933594 405.136719 330.304688 425.125 292.046875 432.917969 C 278.648438 435.640625 272.753906 436.175781 256.554688 436.21875 C 241.425781 436.21875 238.25 436.007812 226.667969 434.113281 C 220.359375 433.125 210.960938 430.980469 205.558594 429.375 L 202.757812 428.550781 L 202.757812 346.140625 C 202.757812 268.023438 202.714844 263.734375 202.054688 263.527344 C 201.644531 263.445312 193.273438 261.714844 183.464844 259.734375 C 171.796875 257.34375 165.859375 255.984375 166.355469 255.777344 C 166.765625 255.613281 174.890625 253.882812 184.410156 251.945312 C 193.933594 250.007812 201.972656 248.359375 202.261719 248.234375 C 202.632812 248.109375 202.757812 233.972656 202.757812 179.554688 L 202.757812 111.082031 L 201.644531 111.371094 C 199.046875 111.988281 188.574219 116.398438 182.96875 119.160156 C 162.027344 129.507812 144.546875 143.566406 130.035156 161.785156 L 127.316406 165.25 L 127.316406 477.152344 L 129.707031 478.511719 C 138.941406 483.746094 150.070312 489.191406 158.851562 492.734375 C 160.460938 493.394531 161.820312 494.015625 161.945312 494.136719 C 162.066406 494.261719 162.4375 494.382812 162.769531 494.464844 C 163.097656 494.550781 165.160156 495.253906 167.304688 496.074219 C 170.972656 497.433594 181.609375 501.019531 182.96875 501.351562 C 183.296875 501.433594 185.976562 502.175781 188.90625 502.960938 C 230.089844 514.335938 276.507812 514.871094 317.976562 504.363281 C 320.699219 503.699219 323.132812 503.082031 323.335938 503.039062 C 323.585938 503 324.863281 502.589844 326.222656 502.175781 C 327.582031 501.765625 328.984375 501.394531 329.316406 501.351562 C 329.644531 501.308594 330.222656 501.148438 330.550781 501.019531 C 330.882812 500.859375 334.714844 499.539062 339.003906 498.09375 C 393.746094 479.503906 441.816406 441.367188 472.855469 391.898438 C 494.128906 357.933594 506.785156 320.832031 510.910156 280.183594 C 511.816406 271.445312 512.183594 249.304688 511.566406 240.195312 C 507.320312 176.296875 480.734375 118.171875 435.386719 73.609375 C 425.695312 64.042969 412.257812 52.707031 405.496094 48.335938 L 404.339844 47.597656 Z M 404.339844 100.320312 "/>
<path style=" stroke:none;fill-rule:nonzero;fill:rgb(100%,75.686275%,2.745098%);fill-opacity:1;" d="M 255.769531 202.722656 C 255.648438 203.050781 253.585938 213.027344 251.195312 224.941406 C 248.761719 236.855469 246.785156 246.625 246.742188 246.667969 C 246.703125 246.667969 236.847656 248.726562 224.8125 251.160156 C 212.816406 253.59375 202.839844 255.695312 202.632812 255.859375 C 202.46875 255.984375 212.195312 258.128906 224.277344 260.558594 C 236.355469 263.03125 246.371094 265.175781 246.535156 265.300781 C 246.703125 265.464844 248.804688 275.195312 251.195312 286.984375 C 255.648438 308.75 255.894531 309.988281 256.183594 309.246094 C 256.265625 308.996094 258.367188 298.980469 260.800781 286.984375 L 265.292969 265.175781 L 279.886719 262.207031 C 287.925781 260.558594 295.140625 259.074219 295.921875 258.992188 C 299.757812 258.375 309.484375 256.105469 309.238281 255.859375 C 309.03125 255.695312 299.179688 253.59375 287.265625 251.160156 C 275.394531 248.769531 265.539062 246.625 265.375 246.460938 C 265.253906 246.296875 263.109375 236.320312 260.675781 224.324219 C 258.246094 212.285156 256.183594 202.390625 256.101562 202.308594 C 256.019531 202.226562 255.851562 202.390625 255.769531 202.722656 Z M 255.769531 202.722656 "/>
</g>
</svg>
