<?xml version="1.0" encoding="UTF-8"?>
<svg xmlns="http://www.w3.org/2000/svg" xmlns:xlink="http://www.w3.org/1999/xlink" width="512px" height="512px" viewBox="0 0 512 512" version="1.1">
<g id="surface1">
<path style=" stroke:none;fill-rule:nonzero;fill:rgb(0%,0%,0%);fill-opacity:1;" d="M 354.367188 256.199219 C 320.28125 242.566406 290.039062 182.71875 273.929688 141.042969 C 242.054688 58.511719 211.003906 8.558594 121.335938 10.691406 C 6.75 13.394531 0 119.886719 0 119.886719 L 0 474.605469 C 0 489.386719 11.996094 501.375 26.765625 501.375 L 474.714844 501.375 C 489.480469 501.375 504.148438 489.679688 506.441406 475.078125 C 515.800781 415.464844 526.417969 274.8125 419.234375 269.441406 C 392.308594 268.066406 370.996094 262.871094 354.367188 256.199219 Z M 477.179688 475.757812 L 21.5625 475.757812 L 21.5625 376.011719 L 47.847656 376.011719 L 47.847656 449.132812 L 76.15625 449.132812 L 76.15625 376.011719 L 99.398438 376.011719 L 99.398438 449.132812 L 127.710938 449.132812 L 127.710938 376.011719 L 150.953125 376.011719 L 150.953125 449.132812 L 179.257812 449.132812 L 179.257812 376.011719 L 202.507812 376.011719 L 202.507812 449.132812 L 230.8125 449.132812 L 230.8125 376.011719 L 254.074219 376.011719 L 254.074219 449.132812 L 282.382812 449.132812 L 282.382812 376.011719 L 305.625 376.011719 L 305.625 449.132812 L 333.929688 449.132812 L 333.929688 376.011719 L 357.1875 376.011719 L 357.1875 449.132812 L 385.476562 449.132812 L 385.476562 376.011719 L 408.730469 376.011719 L 408.730469 449.132812 L 437.050781 449.132812 L 437.050781 376.011719 L 477.148438 376.011719 L 477.148438 475.757812 Z M 477.179688 475.757812 "/>
</g>
</svg>
