<!-- <?xml version="1.0" encoding="UTF-8"?>
<svg xmlns="http://www.w3.org/2000/svg" xmlns:xlink="http://www.w3.org/1999/xlink" width="512px" height="512px" viewBox="0 0 512 512" version="1.1">
<g id="surface1">
<rect x="0" y="0" width="512" height="512" style="fill:rgb(95.294118%,95.294118%,95.294118%);fill-opacity:1;stroke:none;"/>
<path style=" stroke:none;fill-rule:nonzero;fill:rgb(95.294118%,32.54902%,14.509804%);fill-opacity:1;" d="M 22.261719 22.261719 L 244.871094 22.261719 L 244.871094 244.871094 L 22.261719 244.871094 Z M 22.261719 22.261719 "/>
<path style=" stroke:none;fill-rule:nonzero;fill:rgb(50.588235%,73.72549%,2.352941%);fill-opacity:1;" d="M 267.128906 22.261719 L 489.738281 22.261719 L 489.738281 244.871094 L 267.128906 244.871094 Z M 267.128906 22.261719 "/>
<path style=" stroke:none;fill-rule:nonzero;fill:rgb(1.960784%,65.098039%,94.117647%);fill-opacity:1;" d="M 22.261719 267.128906 L 244.871094 267.128906 L 244.871094 489.738281 L 22.261719 489.738281 Z M 22.261719 267.128906 "/>
<path style=" stroke:none;fill-rule:nonzero;fill:rgb(100%,72.941176%,3.137255%);fill-opacity:1;" d="M 267.128906 267.128906 L 489.738281 267.128906 L 489.738281 489.738281 L 267.128906 489.738281 Z M 267.128906 267.128906 "/>
</g>
</svg> -->
<svg xmlns="http://www.w3.org/2000/svg" viewBox="0 0 448 512"><!--!Font Awesome Free 6.6.0 by @fontawesome - https://fontawesome.com License - https://fontawesome.com/license/free Copyright 2024 Fonticons, Inc.--><path d="M0 32h214.6v214.6H0V32zm233.4 0H448v214.6H233.4V32zM0 265.4h214.6V480H0V265.4zm233.4 0H448V480H233.4V265.4z"/></svg>